<?xml version="1.0" encoding="utf-8"?>
<!-- Generator: Adobe Illustrator 27.3.1, SVG Export Plug-In . SVG Version: 6.00 Build 0)  -->
<svg version="1.1" id="Layer_1" xmlns="http://www.w3.org/2000/svg" xmlns:xlink="http://www.w3.org/1999/xlink" x="0px" y="0px"
	 viewBox="0 0 117.3 35.2" style="enable-background:new 0 0 117.3 35.2;" xml:space="preserve">
<style type="text/css">
	.st0{fill:#484647;}
	.st1{fill:#F1F1F1;}
</style>
<g>
	<rect id="Rectangle_228_00000082327839932981056630000016771685134450317731_" class="st0" width="117.3" height="35.2"/>
	<g>
		<path class="st1" d="M32.2,33.5h-7L23.1,27H11.7l-2.1,6.5H2.7L13.8,2.2h7.5L32.2,33.5z M14.9,17.8l-1.3,3.9h7.9l-1.3-3.9l-2.6-9
			L14.9,17.8z"/>
		<path class="st1" d="M46.1,10.2c2.7,0,4.9,1.1,6.6,3.2c1.8,2.2,2.6,5,2.6,8.6s-0.9,6.5-2.7,8.8s-4.2,3.4-7,3.4
			c-2.9,0-5.1-1.2-6.6-3.6l-0.2,2.8h-5.5V2.1h6.2V13C41.1,11.2,43.3,10.2,46.1,10.2z M44.3,28.8c1.5,0,2.8-0.6,3.7-1.8
			c0.9-1.2,1.4-2.9,1.4-4.9s-0.5-3.6-1.4-4.9c-0.9-1.2-2.2-1.8-3.7-1.8s-2.8,0.6-3.7,1.8c-0.9,1.2-1.4,2.8-1.4,4.9s0.5,3.7,1.4,4.9
			C41.6,28.2,42.8,28.8,44.3,28.8z"/>
		<path class="st1" d="M75.6,30.8c-2.1,2.3-4.9,3.4-8.4,3.4s-6.2-1.1-8.4-3.4s-3.3-5.1-3.3-8.6c0-3.4,1.1-6.3,3.3-8.6
			c2.2-2.3,5-3.4,8.4-3.4s6.2,1.1,8.4,3.4s3.3,5.2,3.3,8.6C78.8,25.7,77.7,28.6,75.6,30.8z M61.6,22.2c0,2.2,0.5,3.9,1.5,5.2
			c1,1.3,2.4,1.9,4.1,1.9c1.7,0,3.1-0.6,4.1-1.9s1.5-3,1.5-5.2s-0.5-4-1.5-5.2c-1-1.3-2.4-1.9-4.1-1.9c-1.7,0-3.1,0.6-4.1,1.9
			C62.1,18.3,61.6,20,61.6,22.2z"/>
		<path class="st1" d="M94.1,22.9V10.8h6.2v22.7h-6l-0.1-3.1c-1.5,2.4-3.7,3.7-6.6,3.7c-2.3,0-4.2-0.7-5.5-2.2c-1.3-1.4-2-3.4-2-5.9
			V10.8h6.2v13.8c0,1.2,0.3,2.2,0.9,2.9c0.6,0.7,1.4,1,2.4,1c1.3,0,2.4-0.5,3.2-1.5C93.7,26,94.1,24.6,94.1,22.9z"/>
		<path class="st1" d="M114.5,15.4l-4.2-0.1v11.1c0,0.8,0.2,1.3,0.5,1.7c0.3,0.3,0.9,0.5,1.7,0.5h2.1v5h-4c-2.3,0-3.9-0.5-4.9-1.5
			s-1.5-2.6-1.5-4.9V15.3l-3.1,0.1v-4.6l3.1,0.1V3.8h6.2v7.1l4.2-0.1L114.5,15.4L114.5,15.4z"/>
	</g>
</g>
</svg>
