<svg id="Component_7_2" data-name="Component 7 – 2" xmlns="http://www.w3.org/2000/svg" xmlns:xlink="http://www.w3.org/1999/xlink" width="80.465" height="80.465" viewBox="0 0 80.465 80.465">
  <defs>
    <clipPath id="clip-path">
      <rect id="Rectangle_353" data-name="Rectangle 353" width="80.465" height="80.465" fill="#ebff00"/>
    </clipPath>
  </defs>
  <g id="Group_189" data-name="Group 189" clip-path="url(#clip-path)">
    <path id="Path_192" data-name="Path 192" d="M80.465,44.016V36.448h-26.9A9.493,9.493,0,0,1,48.687,35.1L59.531,24.252l-3.318-3.319L45.369,31.778A9.492,9.492,0,0,1,44.016,26.9V0H36.448V26.9A9.491,9.491,0,0,1,35.1,31.778L24.252,20.933l-3.319,3.319L31.778,35.1A9.491,9.491,0,0,1,26.9,36.448H0v7.568H26.9a9.492,9.492,0,0,1,4.881,1.352L20.933,56.213l3.319,3.318L35.1,48.687a9.493,9.493,0,0,1,1.352,4.881v26.9h7.568v-26.9a9.494,9.494,0,0,1,1.352-4.881L56.213,59.531l3.318-3.318L48.687,45.369a9.494,9.494,0,0,1,4.881-1.352ZM42.456,42.456a3.144,3.144,0,1,1,0-4.446,3.144,3.144,0,0,1,0,4.446" transform="translate(0 0)" fill="#ebff00"/>
  </g>
</svg>
