<?xml version="1.0" encoding="utf-8"?>
<!-- Generator: Adobe Illustrator 27.3.1, SVG Export Plug-In . SVG Version: 6.00 Build 0)  -->
<svg version="1.1" id="Layer_1" xmlns="http://www.w3.org/2000/svg" xmlns:xlink="http://www.w3.org/1999/xlink" x="0px" y="0px"
	 viewBox="0 0 360.9 42.6" style="enable-background:new 0 0 360.9 42.6;" xml:space="preserve">
<style type="text/css">
	.st0{fill:#EBFF00;}
</style>
<g>
	<rect id="Rectangle_228_00000069392591752278280830000002931544873497577123_" class="st0" width="360.9" height="35.2"/>
	<g>
		<path d="M32.7,33.1h-7l-2.1-6.5H12.2l-2.1,6.5H3.2L14.3,1.8h7.5L32.7,33.1z M15.4,17.3l-1.3,3.9H22l-1.3-3.9l-2.6-9L15.4,17.3z"/>
		<path d="M40,33.1h-6.2V1.8H40V33.1z"/>
		<path d="M48.9,33.1h-6.2V1.8h6.2V33.1z"/>
		<path d="M78.6,18c1.6,0.3,2.7,0.9,3.3,1.7c0.7,0.8,1.1,2,1.3,3.4l1.3,9.9h-6.7l-0.7-8.1c-0.1-1.4-0.6-2.5-1.3-3.1
			c-0.7-0.6-1.9-1-3.5-1h-5.8v12.1H60V1.6h14.6c3.5,0,6,0.8,7.6,2.4c1.6,1.6,2.3,3.7,2.3,6.2C84.6,14.4,82.6,17,78.6,18z M66.6,7.2
			v8.4h6.2c1.8,0,3.1-0.4,4-1.2s1.3-1.9,1.3-3.2s-0.4-2.3-1.1-3s-1.9-1.1-3.4-1.1L66.6,7.2L66.6,7.2z"/>
		<path d="M93.2,7.4H87V1.8h6.2V7.4z M93.2,33.1H87V10.4h6.2V33.1z"/>
		<path d="M111.1,13.2l0.2-2.8h5.5v23c0,3-0.9,5.2-2.8,6.8s-4.6,2.4-8,2.4c-3.2,0-5.6-0.7-7.4-2s-2.8-3.2-3-5.7h5.7
			c0.4,2,1.9,3,4.6,3c1.7,0,2.9-0.4,3.7-1.1c0.7-0.7,1.1-1.9,1.1-3.4v-3.1c-1.5,1.8-3.6,2.8-6.2,2.8c-2.9,0-5.2-1.1-7-3.3
			s-2.7-5-2.7-8.5s0.9-6.3,2.7-8.4c1.8-2.1,4.1-3.1,7-3.1C107.3,9.8,109.6,10.9,111.1,13.2z M105.8,27.8c1.5,0,2.7-0.6,3.7-1.8
			s1.4-2.8,1.4-4.7s-0.5-3.5-1.4-4.7c-1-1.2-2.2-1.8-3.7-1.8s-2.8,0.6-3.7,1.8c-0.9,1.2-1.4,2.8-1.4,4.8s0.5,3.6,1.4,4.8
			C103,27.2,104.2,27.8,105.8,27.8z"/>
		<path d="M132.1,9.8c2.3,0,4.2,0.7,5.5,2.2c1.3,1.4,2,3.4,2,5.9v15.2h-6.2V19.3c0-1.2-0.3-2.2-0.9-2.9s-1.4-1-2.4-1
			c-1.3,0-2.4,0.5-3.2,1.5c-0.8,1-1.2,2.4-1.2,4V33h-6.2V1.7h6.2v11.7C127.1,11,129.3,9.8,132.1,9.8z"/>
		<path d="M153.7,14.9l-4.2-0.1v11.1c0,0.8,0.2,1.3,0.5,1.7c0.3,0.3,0.9,0.5,1.7,0.5h2.1v5h-4c-2.3,0-3.9-0.5-4.9-1.5
			s-1.5-2.6-1.5-4.9V14.8l-3.1,0.1v-4.6l3.1,0.1V3.3h6.2v7.1l4.2-0.1L153.7,14.9L153.7,14.9z"/>
		<path d="M171.5,31.9c-1.8,1.3-4.2,2-7.3,2c-3.1,0-5.5-0.7-7.2-2s-2.8-3.2-3.1-5.6l5.7-0.2c0.4,2.3,2,3.5,4.8,3.5
			c1.3,0,2.3-0.2,3-0.7c0.7-0.4,1.1-1.1,1.1-1.8c0-1.1-1-1.9-3-2.3l-4.5-0.9c-4.4-0.9-6.6-3.1-6.6-6.6c0-2.3,0.8-4.1,2.5-5.5
			c1.7-1.3,3.9-2,6.7-2c2.7,0,5,0.7,6.7,2c1.8,1.3,2.8,3.1,3.1,5.3l-5.6,0.2c-0.1-1-0.6-1.8-1.4-2.3c-0.8-0.6-1.8-0.8-2.9-0.8
			c-1,0-1.8,0.2-2.5,0.7c-0.6,0.4-0.9,1-0.9,1.8c0,1.1,0.9,1.9,2.6,2.3l4.9,1c2.3,0.5,3.9,1.2,5,2.3s1.6,2.5,1.6,4.2
			C174.2,28.7,173.3,30.6,171.5,31.9z"/>
		<path d="M202.8,18c1.6,0.3,2.7,0.9,3.3,1.7c0.7,0.8,1.1,2,1.3,3.4l1.3,9.9H202l-0.7-8.1c-0.1-1.4-0.6-2.5-1.3-3.1
			c-0.7-0.6-1.9-1-3.5-1h-5.8v12.1h-6.5V1.6h14.6c3.5,0,6,0.8,7.6,2.4c1.6,1.6,2.3,3.7,2.3,6.2C208.8,14.4,206.8,17,202.8,18z
			 M190.8,7.2v8.4h6.2c1.8,0,3.1-0.4,4-1.2s1.3-1.9,1.3-3.2s-0.4-2.3-1.1-3s-1.9-1.1-3.4-1.1L190.8,7.2L190.8,7.2z"/>
		<path d="M232.5,22.5v1.1H216c0.1,1.7,0.6,3,1.6,4c0.9,1,2.2,1.5,3.7,1.5c2.2,0,3.7-1,4.4-2.9l6.2,0.4c-0.8,2.4-2,4.2-3.8,5.5
			c-1.8,1.2-4,1.9-6.6,1.9c-3.7,0-6.6-1.1-8.7-3.4c-2.1-2.3-3.2-5.2-3.2-8.8c0-3.4,1-6.3,3-8.5s4.7-3.3,8.1-3.3s6.2,1.1,8.4,3.4
			C231.4,15.5,232.5,18.6,232.5,22.5z M224.4,15.6c-0.9-0.9-2-1.3-3.4-1.3s-2.6,0.4-3.5,1.3c-0.9,0.9-1.4,2.2-1.6,3.7H226
			C225.9,17.8,225.3,16.5,224.4,15.6z"/>
		<path d="M250.7,31.9c-1.8,1.3-4.2,2-7.3,2c-3.1,0-5.5-0.7-7.2-2s-2.8-3.2-3.1-5.6l5.7-0.2c0.4,2.3,2,3.5,4.8,3.5
			c1.3,0,2.3-0.2,3-0.7c0.7-0.4,1.1-1.1,1.1-1.8c0-1.1-1-1.9-3-2.3l-4.5-0.9c-4.4-0.9-6.6-3.1-6.6-6.6c0-2.3,0.8-4.1,2.5-5.5
			c1.7-1.3,3.9-2,6.7-2c2.7,0,5,0.7,6.7,2c1.8,1.3,2.8,3.1,3.1,5.3l-5.6,0.2c-0.1-1-0.6-1.8-1.4-2.3c-0.8-0.6-1.8-0.8-2.9-0.8
			c-1,0-1.8,0.2-2.5,0.7c-0.6,0.4-0.9,1-0.9,1.8c0,1.1,0.9,1.9,2.6,2.3l4.9,1c2.3,0.5,3.9,1.2,5,2.3s1.6,2.5,1.6,4.2
			C253.4,28.7,252.5,30.6,250.7,31.9z"/>
		<path d="M276.6,22.5v1.1h-16.5c0.1,1.7,0.6,3,1.6,4c0.9,1,2.2,1.5,3.7,1.5c2.2,0,3.7-1,4.4-2.9l6.2,0.4c-0.8,2.4-2,4.2-3.8,5.5
			c-1.8,1.2-4,1.9-6.6,1.9c-3.7,0-6.6-1.1-8.7-3.4c-2.1-2.3-3.2-5.2-3.2-8.8c0-3.4,1-6.3,3-8.5s4.7-3.3,8.1-3.3s6.2,1.1,8.4,3.4
			C275.5,15.5,276.6,18.6,276.6,22.5z M268.6,15.6c-0.9-0.9-2-1.3-3.4-1.3s-2.6,0.4-3.5,1.3c-0.9,0.9-1.4,2.2-1.6,3.7h10.1
			C270,17.8,269.5,16.5,268.6,15.6z"/>
		<path d="M289.1,9.6c0.7,0,1.4,0.1,2,0.3v5.7c-0.8-0.1-1.2-0.1-1.3-0.1c-3.8,0-5.6,2.2-5.6,6.6v11H278V10.4h6.1l-0.1,3
			C284.9,10.9,286.6,9.6,289.1,9.6z"/>
		<path d="M305.1,17.2l2.1-6.8h6.2l-7.5,22.7h-6.3l-7.5-22.7h6.6l1.9,6.8l2.3,9.9L305.1,17.2z"/>
		<path d="M335.3,22.5v1.1h-16.5c0.1,1.7,0.6,3,1.6,4c0.9,1,2.2,1.5,3.7,1.5c2.2,0,3.7-1,4.4-2.9l6.2,0.4c-0.8,2.4-2,4.2-3.8,5.5
			c-1.8,1.2-4,1.9-6.6,1.9c-3.7,0-6.6-1.1-8.7-3.4c-2.1-2.3-3.2-5.2-3.2-8.8c0-3.4,1-6.3,3-8.5s4.7-3.3,8.1-3.3s6.2,1.1,8.4,3.4
			C334.2,15.5,335.3,18.6,335.3,22.5z M327.3,15.6c-0.9-0.9-2-1.3-3.4-1.3s-2.6,0.4-3.5,1.3c-0.9,0.9-1.4,2.2-1.6,3.7h10.1
			C328.7,17.8,328.2,16.5,327.3,15.6z"/>
		<path d="M351.4,12.7V1.8h6.2v31.3h-5.5l-0.2-2.8c-1.6,2.4-3.8,3.6-6.6,3.6c-2.9,0-5.2-1.1-7-3.4c-1.8-2.3-2.7-5.2-2.7-8.8
			s0.9-6.5,2.6-8.6c1.8-2.1,4-3.2,6.6-3.2C347.6,9.8,349.8,10.7,351.4,12.7z M346.6,28.4c1.5,0,2.7-0.6,3.7-1.8s1.4-2.9,1.4-4.9
			s-0.5-3.6-1.4-4.9c-0.9-1.2-2.2-1.8-3.7-1.8s-2.8,0.6-3.7,1.8c-0.9,1.2-1.4,2.8-1.4,4.9s0.5,3.7,1.4,4.9
			C343.8,27.7,345.1,28.4,346.6,28.4z"/>
	</g>
</g>
</svg>
