<?xml version="1.0" encoding="utf-8"?>
<!-- Generator: Adobe Illustrator 27.3.1, SVG Export Plug-In . SVG Version: 6.00 Build 0)  -->
<svg version="1.1" id="Layer_1" xmlns="http://www.w3.org/2000/svg" xmlns:xlink="http://www.w3.org/1999/xlink" x="0px" y="0px"
	 viewBox="0 0 164.2 35.2" style="enable-background:new 0 0 164.2 35.2;" xml:space="preserve">
<style type="text/css">
	.st0{fill:#EBFF00;}
</style>
<g>
	<rect id="Rectangle_228_00000159470591035906687010000016882283517473456020_" class="st0" width="164.2" height="35.2"/>
	<g>
		<path d="M24.7,2.2V8H9.1v6.7h13.6v5.8H9.1v13H2.5V2.2H24.7z"/>
		<path d="M46.5,22.9V24H30c0.1,1.7,0.6,3,1.6,4c0.9,1,2.2,1.5,3.7,1.5c2.2,0,3.7-1,4.4-2.9l6.2,0.4c-0.8,2.4-2,4.2-3.8,5.5
			c-1.8,1.2-4,1.9-6.6,1.9c-3.7,0-6.6-1.1-8.7-3.4c-2.1-2.3-3.2-5.2-3.2-8.8c0-3.4,1-6.3,3-8.5s4.7-3.3,8.1-3.3
			c3.4,0,6.2,1.1,8.4,3.4C45.5,16,46.5,19.1,46.5,22.9z M38.5,16.1c-0.9-0.9-2-1.3-3.4-1.3s-2.6,0.4-3.5,1.3
			c-0.9,0.9-1.4,2.2-1.6,3.7h10.1C39.9,18.2,39.4,17,38.5,16.1z"/>
		<path d="M68,33.5h-6.3c-0.3-1.5-0.5-2.2-0.5-2.3c-1.6,2-3.9,2.9-7,2.9c-2.4,0-4.3-0.6-5.7-1.9c-1.4-1.3-2.2-2.9-2.2-5
			c0-3.7,2.3-6,6.9-6.9l7.9-1.6V17c0-1.6-1.3-2.5-3.8-2.5c-1.3,0-2.2,0.2-2.9,0.7c-0.6,0.5-1,1.2-1.2,2.3l-5.7-0.1
			c0.4-4.9,3.6-7.3,9.7-7.3c6.5,0,9.8,2.8,9.8,8.4v10C67.1,30.9,67.4,32.5,68,33.5z M56,29.6c1.6,0,2.8-0.5,3.8-1.4s1.4-2.2,1.4-3.8
			v-1.7l-5.8,1.2c-2,0.4-2.9,1.3-2.9,2.9c0,0.8,0.3,1.5,0.9,2C54,29.3,54.9,29.6,56,29.6z"/>
		<path d="M81.3,15.4l-4.2-0.1v11.1c0,0.8,0.2,1.3,0.5,1.7c0.3,0.3,0.9,0.5,1.7,0.5h2.1v5h-4c-2.3,0-3.9-0.5-4.9-1.5
			S71,29.5,71,27.2V15.3l-3.1,0.1v-4.6l3.1,0.1V3.8h6.2v7.1l4.2-0.1L81.3,15.4L81.3,15.4z"/>
		<path d="M96.1,22.9V10.8h6.2v22.7h-6.1l-0.1-3.1c-1.5,2.4-3.7,3.7-6.6,3.7c-2.3,0-4.2-0.7-5.5-2.2c-1.3-1.4-2-3.4-2-5.9V10.8h6.2
			v13.8c0,1.2,0.3,2.2,0.9,2.9s1.4,1,2.4,1c1.3,0,2.4-0.5,3.2-1.5S96.1,24.6,96.1,22.9z"/>
		<path d="M116.1,10c0.7,0,1.4,0.1,2,0.3V16c-0.8-0.1-1.2-0.1-1.3-0.1c-3.8,0-5.6,2.2-5.6,6.6v11H105V10.8h6.1l-0.1,3
			C112,11.3,113.7,10,116.1,10z"/>
		<path d="M140.6,22.9V24h-16.5c0.1,1.7,0.6,3,1.6,4c0.9,1,2.2,1.5,3.7,1.5c2.2,0,3.7-1,4.4-2.9L140,27c-0.8,2.4-2,4.2-3.8,5.5
			c-1.8,1.2-4,1.9-6.6,1.9c-3.7,0-6.6-1.1-8.7-3.4s-3.2-5.2-3.2-8.8c0-3.4,1-6.3,3-8.5s4.7-3.3,8.1-3.3s6.2,1.1,8.4,3.4
			C139.5,16,140.6,19.1,140.6,22.9z M132.6,16.1c-0.9-0.9-2-1.3-3.4-1.3s-2.6,0.4-3.5,1.3c-0.9,0.9-1.4,2.2-1.6,3.7h10.1
			C134,18.2,133.5,17,132.6,16.1z"/>
		<path d="M158.8,32.3c-1.8,1.3-4.2,2-7.3,2c-3.1,0-5.5-0.7-7.2-2s-2.8-3.2-3.1-5.6l5.7-0.2c0.4,2.3,2,3.5,4.8,3.5
			c1.3,0,2.3-0.2,3-0.7s1.1-1.1,1.1-1.8c0-1.1-1-1.9-3-2.3l-4.5-0.9c-4.4-0.9-6.6-3.1-6.6-6.6c0-2.3,0.8-4.1,2.5-5.5
			c1.7-1.3,3.9-2,6.7-2c2.7,0,5,0.7,6.7,2c1.8,1.3,2.8,3.1,3.1,5.3l-5.6,0.2c-0.1-1-0.6-1.8-1.4-2.3c-0.8-0.6-1.8-0.8-2.9-0.8
			c-1,0-1.8,0.2-2.5,0.7s-0.9,1-0.9,1.8c0,1.1,0.9,1.9,2.6,2.3l4.9,1c2.3,0.5,3.9,1.2,5,2.3s1.6,2.5,1.6,4.2
			C161.6,29.1,160.7,31,158.8,32.3z"/>
	</g>
</g>
</svg>
