<?xml version="1.0" encoding="utf-8"?>
<!-- Generator: Adobe Illustrator 27.3.1, SVG Export Plug-In . SVG Version: 6.00 Build 0)  -->
<svg version="1.1" id="Layer_1" xmlns="http://www.w3.org/2000/svg" xmlns:xlink="http://www.w3.org/1999/xlink" x="0px" y="0px"
	 viewBox="0 0 377 35.2" style="enable-background:new 0 0 377 35.2;" xml:space="preserve">
<style type="text/css">
	.st0{fill:#484647;}
	.st1{fill:#F1F1F1;}
</style>
<g>
	<rect id="Rectangle_228_00000051345509370007317540000014854523516958874266_" class="st0" width="377" height="35.2"/>
	<g>
		<g>
			<path class="st1" d="M8.9,20v8h16.7v5.5H2.4V2.2h22.8v5.5H8.9v6.8h14.7v5.6H8.9V20z"/>
			<path class="st1" d="M33.6,33.5h-6.2V2.2h6.2V33.5z"/>
			<path class="st1" d="M56.3,33.5H50c-0.3-1.5-0.5-2.2-0.5-2.3c-1.6,2-3.9,2.9-7,2.9c-2.4,0-4.3-0.6-5.7-1.9s-2.2-2.9-2.2-5
				c0-3.7,2.3-6,6.9-6.9l7.9-1.6V17c0-1.6-1.3-2.5-3.8-2.5c-1.3,0-2.2,0.2-2.9,0.7c-0.6,0.5-1,1.2-1.2,2.3l-5.7-0.1
				c0.4-4.9,3.6-7.3,9.7-7.3c6.5,0,9.8,2.8,9.8,8.4v10C55.5,30.9,55.7,32.5,56.3,33.5z M44.3,29.6c1.6,0,2.8-0.5,3.8-1.4
				s1.4-2.2,1.4-3.8v-1.7l-5.8,1.2c-2,0.4-2.9,1.3-2.9,2.9c0,0.8,0.3,1.5,0.9,2C42.3,29.3,43.2,29.6,44.3,29.6z"/>
			<path class="st1" d="M70.9,10.2c2.7,0,4.9,1.1,6.6,3.2c1.8,2.2,2.6,5,2.6,8.6s-0.9,6.5-2.7,8.8s-4.2,3.4-7,3.4
				c-2.9,0-5.1-1.2-6.6-3.6l-0.2,2.8h-5.5V2.1h6.2V13C65.9,11.2,68.1,10.2,70.9,10.2z M69.1,28.8c1.5,0,2.8-0.6,3.7-1.8
				c0.9-1.2,1.4-2.9,1.4-4.9s-0.5-3.6-1.4-4.9c-0.9-1.2-2.2-1.8-3.7-1.8s-2.8,0.6-3.7,1.8C64.5,18.4,64,20,64,22.1s0.5,3.7,1.4,4.9
				C66.4,28.2,67.6,28.8,69.1,28.8z"/>
			<path class="st1" d="M100.3,30.8c-2.1,2.3-4.9,3.4-8.4,3.4c-3.4,0-6.2-1.1-8.4-3.4s-3.3-5.1-3.3-8.6c0-3.4,1.1-6.3,3.3-8.6
				c2.2-2.3,5-3.4,8.4-3.4s6.2,1.1,8.4,3.4s3.3,5.2,3.3,8.6C103.6,25.7,102.5,28.6,100.3,30.8z M86.3,22.2c0,2.2,0.5,3.9,1.5,5.2
				c1,1.3,2.4,1.9,4.1,1.9c1.7,0,3.1-0.6,4.1-1.9s1.5-3,1.5-5.2S97,18.2,96,17c-1-1.3-2.4-1.9-4.1-1.9c-1.7,0-3.1,0.6-4.1,1.9
				C86.9,18.3,86.3,20,86.3,22.2z"/>
			<path class="st1" d="M116.1,10c0.7,0,1.4,0.1,2,0.3V16c-0.8-0.1-1.2-0.1-1.3-0.1c-3.8,0-5.6,2.2-5.6,6.6v11H105V10.8h6.1l-0.1,3
				C111.9,11.3,113.6,10,116.1,10z"/>
			<path class="st1" d="M138.6,33.5h-6.3c-0.3-1.5-0.5-2.2-0.5-2.3c-1.6,2-3.9,2.9-7,2.9c-2.4,0-4.3-0.6-5.7-1.9s-2.2-2.9-2.2-5
				c0-3.7,2.3-6,6.9-6.9l7.9-1.6V17c0-1.6-1.3-2.5-3.8-2.5c-1.3,0-2.2,0.2-2.9,0.7c-0.6,0.5-1,1.2-1.2,2.3l-5.7-0.1
				c0.4-4.9,3.6-7.3,9.7-7.3c6.5,0,9.8,2.8,9.8,8.4v10C137.7,30.9,138,32.5,138.6,33.5z M126.6,29.6c1.6,0,2.8-0.5,3.8-1.4
				s1.4-2.2,1.4-3.8v-1.7l-5.8,1.2c-2,0.4-2.9,1.3-2.9,2.9c0,0.8,0.3,1.5,0.9,2C124.6,29.3,125.5,29.6,126.6,29.6z"/>
			<path class="st1" d="M151.9,15.4l-4.2-0.1v11.1c0,0.8,0.2,1.3,0.5,1.7c0.3,0.3,0.9,0.5,1.7,0.5h2.1v5h-4c-2.3,0-3.9-0.5-4.9-1.5
				s-1.5-2.6-1.5-4.9V15.3l-3.1,0.1v-4.6l3.1,0.1V3.8h6.2v7.1l4.2-0.1v4.6H151.9z"/>
			<path class="st1" d="M174.4,22.9V24h-16.5c0.1,1.7,0.6,3,1.6,4c0.9,1,2.2,1.5,3.7,1.5c2.2,0,3.7-1,4.4-2.9l6.2,0.4
				c-0.8,2.4-2,4.2-3.8,5.5c-1.8,1.2-4,1.9-6.6,1.9c-3.7,0-6.6-1.1-8.7-3.4s-3.2-5.2-3.2-8.8c0-3.4,1-6.3,3-8.5s4.7-3.3,8.1-3.3
				s6.2,1.1,8.4,3.4C173.3,16,174.4,19.1,174.4,22.9z M166.4,16.1c-0.9-0.9-2-1.3-3.4-1.3s-2.6,0.4-3.5,1.3s-1.4,2.2-1.6,3.7H168
				C167.8,18.2,167.3,17,166.4,16.1z"/>
			<path class="st1" d="M204,17.8l4-15.7h6.7l-9.2,31.3h-6.2L194.5,12l-4.8,21.4h-6.3l-9.2-31.3h6.9l4,15.7l1.5,6.3l1.3-6.3
				l3.4-15.7h6.4l3.4,15.7l1.3,6.3L204,17.8z"/>
			<path class="st1" d="M232.7,33.5h-6.3c-0.3-1.5-0.5-2.2-0.5-2.3c-1.6,2-3.9,2.9-7,2.9c-2.4,0-4.3-0.6-5.7-1.9
				c-1.4-1.3-2.2-2.9-2.2-5c0-3.7,2.3-6,6.9-6.9l7.9-1.6V17c0-1.6-1.3-2.5-3.8-2.5c-1.3,0-2.2,0.2-2.9,0.7c-0.6,0.5-1,1.2-1.2,2.3
				l-5.7-0.1c0.4-4.9,3.6-7.3,9.7-7.3c6.5,0,9.8,2.8,9.8,8.4v10C231.8,30.9,232.1,32.5,232.7,33.5z M220.7,29.6
				c1.6,0,2.8-0.5,3.8-1.4s1.4-2.2,1.4-3.8v-1.7l-5.8,1.2c-2,0.4-2.9,1.3-2.9,2.9c0,0.8,0.3,1.5,0.9,2
				C218.7,29.3,219.6,29.6,220.7,29.6z"/>
			<path class="st1" d="M240.7,33.5h-6.2V2.2h6.2V33.5z"/>
			<path class="st1" d="M265.2,33.5h-7.4l-6-9.9l-2.3,2.3v7.5h-6.2V2.1h6.2v17.3l7.7-8.6h7.8l-8.8,8.9L265.2,33.5z"/>
			<path class="st1" d="M282.7,32.3c-1.8,1.3-4.2,2-7.3,2c-3.1,0-5.5-0.7-7.2-2s-2.8-3.2-3.1-5.6l5.7-0.2c0.4,2.3,2,3.5,4.8,3.5
				c1.3,0,2.3-0.2,3-0.7s1.1-1.1,1.1-1.8c0-1.1-1-1.9-3-2.3l-4.5-0.9c-4.4-0.9-6.6-3.1-6.6-6.6c0-2.3,0.8-4.1,2.5-5.5
				c1.7-1.3,3.9-2,6.7-2c2.7,0,5,0.7,6.7,2c1.8,1.3,2.8,3.1,3.1,5.3l-5.6,0.2c-0.1-1-0.6-1.8-1.4-2.3c-0.8-0.6-1.8-0.8-2.9-0.8
				c-1,0-1.8,0.2-2.5,0.7s-0.9,1-0.9,1.8c0,1.1,0.9,1.9,2.6,2.3l4.9,1c2.3,0.5,3.9,1.2,5,2.3c1.1,1.1,1.6,2.5,1.6,4.2
				C285.4,29.2,284.5,31,282.7,32.3z"/>
			<path class="st1" d="M294.2,33.5h-7.3v-6.6h7.3V33.5z"/>
			<path class="st1" d="M306.6,34.3c-3.3,0-6-1.1-8-3.3c-2-2.1-2.9-5.1-2.9-8.8c0-3.7,1-6.6,2.9-8.8c2-2.2,4.6-3.3,8-3.3
				c2.9,0,5.3,0.7,7.1,2.2c1.8,1.5,3,3.6,3.4,6.3H311c-0.7-2.4-2.1-3.7-4.4-3.7c-1.6,0-2.8,0.6-3.7,1.9c-0.9,1.2-1.3,3-1.3,5.3
				s0.4,4.1,1.3,5.3c0.9,1.2,2.1,1.9,3.7,1.9c2.2,0,3.7-1.2,4.4-3.7h6.1c-0.5,2.7-1.6,4.8-3.5,6.3C311.8,33.5,309.4,34.3,306.6,34.3
				z"/>
			<path class="st1" d="M337.1,30.8c-2.1,2.3-4.9,3.4-8.4,3.4c-3.4,0-6.2-1.1-8.4-3.4s-3.3-5.1-3.3-8.6c0-3.4,1.1-6.3,3.3-8.6
				c2.2-2.3,5-3.4,8.4-3.4c3.4,0,6.2,1.1,8.4,3.4c2.2,2.3,3.3,5.2,3.3,8.6C340.4,25.7,339.3,28.6,337.1,30.8z M323.1,22.2
				c0,2.2,0.5,3.9,1.5,5.2c1,1.3,2.4,1.9,4.1,1.9s3.1-0.6,4.1-1.9s1.5-3,1.5-5.2s-0.5-4-1.5-5.2c-1-1.3-2.4-1.9-4.1-1.9
				s-3.1,0.6-4.1,1.9C323.6,18.3,323.1,20,323.1,22.2z"/>
			<path class="st1" d="M367.2,10.2c2.3,0,4,0.7,5.3,2.2s1.9,3.4,1.9,5.9v15.2h-6.2V19.6c0-1.1-0.3-2-0.8-2.7s-1.3-1-2.3-1
				c-1.2,0-2.2,0.5-2.9,1.5c-0.7,1-1.1,2.4-1.1,4v12.1h-6.2V19.6c0-1.1-0.3-2-0.8-2.7s-1.3-1-2.3-1c-1.2,0-2.2,0.5-2.9,1.5
				c-0.7,1-1.1,2.4-1.1,4v12.1h-6.2V10.8h6.1l0.1,2.9c1.4-2.3,3.5-3.5,6.2-3.5c3.2,0,5.4,1.4,6.5,4.1
				C362,11.6,364.2,10.2,367.2,10.2z"/>
		</g>
	</g>
</g>
</svg>
