<svg id="Group_205" data-name="Group 205" xmlns="http://www.w3.org/2000/svg" xmlns:xlink="http://www.w3.org/1999/xlink" width="199.001" height="71.468" viewBox="0 0 199.001 71.468">
  <defs>
    <clipPath id="clip-path">
      <rect id="Rectangle_364" data-name="Rectangle 364" width="199.001" height="71.468" fill="none"/>
    </clipPath>
  </defs>
  <rect id="Rectangle_362" data-name="Rectangle 362" width="199.001" height="33.244" transform="translate(0 0)" fill="#ebff00"/>
  <rect id="Rectangle_363" data-name="Rectangle 363" width="127.6" height="33.244" transform="translate(35.701 31.993)" fill="#ebff00"/>
  <g id="Group_203" data-name="Group 203">
    <g id="Group_202" data-name="Group 202" clip-path="url(#clip-path)">
      <path id="Path_194" data-name="Path 194" d="M502.8,132.148l.587-6.646c-.871.334-1.727.624-2.558.871a21.113,21.113,0,0,1,1.125,5.83Z" transform="translate(-346.094 -86.727)"/>
      <path id="Path_195" data-name="Path 195" d="M199.8,26.939a8.194,8.194,0,0,1-7.715,5.246h-6.429V14.5h8.277c2.184,0,2.129,3.566,2.129,3.566h.655V9.43h-.655S196.114,13,193.93,13h-8.277V3.239h6.6a6.452,6.452,0,0,1,6.185,4.671l.646-.358-1.872-5.821H182.09v0H156.456l-.95,4.261a21.06,21.06,0,0,0-3.119-3.44c-.117-.105-.226-.2-.324-.284-.383-.321-.633-.5-.68-.538h-5.543v.655s2.787.037,3.8,1.01a29.006,29.006,0,0,1,3.729,4.854l-6.167,6.392c-.408.448-7.773,7.888-7.773,14.694A18.28,18.28,0,0,0,139.6,31.8c-2.217-1.537-4.324-4.416-6.585-8.021-3.418-5.452-5.391-5.747-5.391-5.747h0c6.908-1.375,8.7-5.323,8.7-8.2a8.815,8.815,0,0,0-8.66-8.462,9.009,9.009,0,0,0-6.636,2.818V1.717H113.9v.655s3.562-.059,3.562,2.126v7.865a16.455,16.455,0,0,0-31.758,8.272,9.365,9.365,0,0,0-3.792-3.364,9.977,9.977,0,0,0-2.469-.834,8.863,8.863,0,0,0,1.789-.674A7.58,7.58,0,0,0,85.63,9.07c0-4.242-3.823-7.684-8.662-7.684A9.01,9.01,0,0,0,70.334,4.2V1.733H63.209v.655s3.562-.059,3.562,2.126V31.034c-.077,1.194-1.265,1.676-2.247,1.87a5.349,5.349,0,0,1-.555-.143,2.019,2.019,0,0,1-1.656-1.783c0-.683,0-6.343,0-6.365V15.439a15.6,15.6,0,0,0-2.332-8.07c-.285-.482-.584-.933-.89-1.356a21.037,21.037,0,0,0-3.136-3.463c-.117-.105-.226-.2-.325-.284-.383-.321-.633-.5-.679-.538H49.406v.655s2.786.037,3.8,1.01a29.022,29.022,0,0,1,3.729,4.854l-6.167,6.392c-.407.447-7.726,7.842-7.771,14.631a7.915,7.915,0,0,1-6.331,2.917h-6.43V1.73H23.112v.655s3.564-.057,3.564,2.127V31.061c-.108,1.317-1.579,1.755-2.6,1.9L25.389,27.1l-.562-.158a8.194,8.194,0,0,1-7.715,5.246H10.683V14.5H18.96c2.185,0,2.129,3.566,2.129,3.566h.655V9.43h-.655S21.144,13,18.96,13H10.683V3.239h6.6A6.452,6.452,0,0,1,23.464,7.91l.646-.358L22.238,1.731H7.12v0H3.555v.655S7.12,2.327,7.12,4.511V31.06c-.167,2.027-3.556,1.971-3.556,1.971v.655H7.12l.034,0H23.918v0H42.291v.019a4.221,4.221,0,0,1,.618.022,5,5,0,0,1,.673.117,3.088,3.088,0,0,1,2.32,1.99L46.993,39l.34.989,8.617,25.019h1.579l.958-3.572,5.963-22.251c-.59.244-1.174.473-1.746.677l-5.1,19.019-6-17.419-.226-.661-1.109-3.219-.356-1.035-.247-.714c-.692-2.033,2.614-2.129,2.614-2.129v-.655H47.014c-.059-.2-.111-.408-.157-.618a13.98,13.98,0,0,1-.322-3.105c0-3.281-.151-6.952,4.2-12.083L58.8,25.8v5.243c-.136,2.055-3.556,2-3.556,2V33.7H58.8v0h3.507v0h2.045l-.167.618-.6,2.228-.2.742a33.614,33.614,0,0,0,3.75-1.434l-.655-1.705-.175-.455h6.01c2.083.012,4.184.073,6-.052v.068s3.392.087,2.92,2.129l-5.3,22.943L67.829,37.631q-1.659.839-3.244,1.5l9.93,25.86,0,.019h1.545l.859-3.714,5.879-25.461a2.992,2.992,0,0,1,2.742-2.061,5.4,5.4,0,0,1,2.847.945,29.006,29.006,0,0,1,3.729,4.854l-6.167,6.392c-.408.448-7.773,7.887-7.773,14.694,0,11.864,9.968,15.2,24.813,7.614l-.34-.563c-9.139,4.139-20.936,4.813-20.936-7.054,0-3.281-.151-6.952,4.2-12.083l8.067,8.555v5.243c-.136,2.055-3.556,2-3.556,2v.655h3.556v0h3.507v0h3.562v-.013h27.937v-.655s-3.5.059-3.559-2.064V49.369s6.87,7.222,11.254,11.856h0c.494.522.958,1.013,1.375,1.455h0c1.245,1.319,2.091,2.218,2.181,2.33h7.285v-.022a23.421,23.421,0,0,0,4.275.365c5.3,0,9.825-3.868,9.825-8.642,0-5.83-9.859-10.038-11.221-10.671-5.126-2.382-7.1-4.075-7.378-6.553a5.55,5.55,0,0,1-.037-.649c0-.065,0-.127,0-.188A4.353,4.353,0,0,1,144.5,35.4a5.211,5.211,0,0,1,.5-.377,8.246,8.246,0,0,1,4.576-1.137,6.227,6.227,0,0,1,1.486.179,6.448,6.448,0,0,1,.809.253,8.639,8.639,0,0,1,4.245,3.871,27.769,27.769,0,0,0,3.84-.942l.127-1.44-.677-.046a5.412,5.412,0,0,1-.423,1.072c-.562.915-1.387.433-1.733-.065a10.231,10.231,0,0,0-2.33-2.447,8.382,8.382,0,0,0-.973-.621h1.288v0h3.507v0h3.562v-.655s-3.494.059-3.559-2.064c0-.683,0-6.343,0-6.365V15.439a15.6,15.6,0,0,0-2.333-8.07c-.055-.093-.112-.179-.168-.269a8,8,0,0,1,7.017-3.867h3.958V30.954c-.053,2.134-3.561,2.078-3.561,2.078v.655h7.127v0h3.562v-.655s-3.562.056-3.562-2.128V3.231h3.945a8.077,8.077,0,0,1,7.359,4.463V31.06c-.167,2.027-3.556,1.971-3.556,1.971v.655h3.556l.034,0h16.764l1.471-6.593ZM58.8,23.6c-.173-.179-7.208-7.637-7.208-7.637l6.059-6.278a15.276,15.276,0,0,1,1.149,5.75ZM121.029,6.824a6.013,6.013,0,0,1,5.53-3.908c4.05,0,6,3.649,6,7.189,0,3.417-2.564,6.42-7.359,6.42h-4.174Zm-20.825-4c7.036-.8,13.5,5.213,14.437,13.435S110.635,31.795,103.6,32.6,90.1,27.384,89.162,19.161,93.168,3.623,100.2,2.821M70.334,6.84a6.013,6.013,0,0,1,5.531-3.908,6.217,6.217,0,0,1,6,6.411c0,3.417-2.564,6.42-7.359,6.42H70.334Zm2.339,25.345c-2.478,0-2.339-1.591-2.339-1.591V17.266s3.532,0,4.78,0c5.447,0,8.3,3.451,8.3,7.582,0,3.544-2.342,7.333-7.579,7.333ZM93.979,54.93c-.173-.179-7.208-7.638-7.208-7.638l6.06-6.276a15.272,15.272,0,0,1,1.148,5.749Zm7.93,7.455c-.1,1.172-1.271,1.647-2.245,1.84-.984-.207-2.138-.707-2.175-1.919,0-.683,0-6.343,0-6.365V46.766a15.6,15.6,0,0,0-2.333-8.07c-.284-.482-.584-.933-.89-1.356a21.023,21.023,0,0,0-3.136-3.463c-.117-.105-.226-.2-.324-.284-.383-.321-.633-.5-.68-.538h-3.51v0H81.541a4.962,4.962,0,0,0,.481-.208,8.764,8.764,0,0,0,5-7.761c0-.128-.009-.254-.015-.38a16.461,16.461,0,0,0,13.569,9.4,1.862,1.862,0,0,1,1.337,1.726Zm19.952-.031c-.1,1.531-2.026,1.892-3,1.976l1.319-5.909-.564-.158A8.2,8.2,0,0,1,111.9,63.51h-6.43V33.774a16.481,16.481,0,0,0,11.995-10.718v7.963c-.133,2.055-3.556,2-3.556,2v.655H118.3v.033s3.559-.059,3.559,2.126Zm2.727-29.3V33.02s-3.494.059-3.559-2.064V18.033s3.1-.008,4.767,1.747a52.3,52.3,0,0,1,5.034,6.835,77.033,77.033,0,0,0,4.508,6.439h-2.062v.658s2.96-.028,1.424,2.126L125.426,47.88v-12.1c.062-2.123,3.559-2.064,3.559-2.064v-.658Zm30.651-2.009c-.065.995-.9,1.5-1.746,1.746a6.389,6.389,0,0,1-1.193.222,8.1,8.1,0,0,0-1.236-.266,9.75,9.75,0,0,0-1.437-.1A10.3,10.3,0,0,0,144.453,34c-.182.1-.361.213-.531.331a8.371,8.371,0,0,0-2.5,2.564,6.56,6.56,0,0,0-.34.612v0a6.967,6.967,0,0,0-.729,3.1c0,4.743,8.481,8.558,9.819,9.182,5.917,2.759,7.885,5.258,7.885,8.45,0,2.113-1.393,5.348-6.8,5.435a16.676,16.676,0,0,1-11.342-4.4l0,0c-.361-.371-.748-.772-1.152-1.193l-.225-.232-3.3-3.417-.336-.349c-3.149-3.263-6.217-6.445-6.862-7.125L136.6,35.837a5.467,5.467,0,0,1,3.405-2.04,11.022,11.022,0,0,0,1.052,2.527,9.159,9.159,0,0,1,2.623-2.567,12.5,12.5,0,0,1-.714-4.427c0-3.281-.151-6.952,4.2-12.083l8.067,8.555Zm0-7.44c-.173-.179-7.208-7.637-7.208-7.637l6.059-6.278a15.276,15.276,0,0,1,1.149,5.75Z" transform="translate(-2.457 -0.864)"/>
      <path id="Path_196" data-name="Path 196" d="M133.87,109.062a9.494,9.494,0,0,0,2.243,3.63l-.742-2.153a2.385,2.385,0,0,0-1.5-1.477" transform="translate(-92.51 -75.366)"/>
      <path id="Path_197" data-name="Path 197" d="M173.776,114.962l-.1.046a34.055,34.055,0,0,1-4.162,1.557c-.232.071-.46.139-.692.2-4.18,1.152-8.385,1.35-11.431-.145l.986,2.861a22.914,22.914,0,0,0,10.121-1.514c.235-.08.47-.167.708-.256a46.059,46.059,0,0,0,4.709-2.082c.068-.031.136-.068.2-.1Z" transform="translate(-108.762 -79.444)"/>
      <path id="Path_198" data-name="Path 198" d="M473.7,116.216c1.223-.5,2.49-1.081,3.791-1.746l-.34-.565a34.686,34.686,0,0,1-3.365,1.319c-.213.071-.426.139-.64.207a29.362,29.362,0,0,1-3.467.853c-.213.037-.423.071-.636.1-4.471.68-8.62.009-10.931-2.954a3.762,3.762,0,0,0-1.264,2.929c0,.1,0,.2.009.294,2.944,2.082,7.328,2.465,12.763.964q.292-.079.593-.167,1.376-.408,2.839-.979c.213-.08.429-.167.646-.256" transform="translate(-315.702 -78.386)"/>
    </g>
  </g>
</svg>
